<svg width="22" height="22" viewBox="0 0 22 22" fill="none" xmlns="http://www.w3.org/2000/svg">
<path fill-rule="evenodd" clip-rule="evenodd" d="M5.68333 8.92222L7.975 5.86667C8.14812 5.63584 8.41981 5.5 8.70833 5.5H13.2917C13.5802 5.5 13.8519 5.63584 14.025 5.86667L16.3167 8.92222C16.4357 9.08089 16.5 9.27388 16.5 9.47222V19.25C16.5 20.2625 15.6792 21.0833 14.6667 21.0833H7.33333C6.32081 21.0833 5.5 20.2625 5.5 19.25V9.47222C5.5 9.27388 5.56433 9.08089 5.68333 8.92222ZM8.25 11C7.74374 11 7.33333 11.4104 7.33333 11.9167V18.3333C7.33333 18.8396 7.74374 19.25 8.25 19.25H9.16667C9.67293 19.25 10.0833 18.8396 10.0833 18.3333V11.9167C10.0833 11.4104 9.67293 11 9.16667 11H8.25Z" fill="white"/>
<path opacity="0.3" d="M12.8333 0.916687H9.16667C8.66041 0.916687 8.25 1.32709 8.25 1.83335V2.75002C8.25 3.25628 8.66041 3.66669 9.16667 3.66669H12.8333C13.3396 3.66669 13.75 3.25628 13.75 2.75002V1.83335C13.75 1.32709 13.3396 0.916687 12.8333 0.916687Z" fill="white"/>
</svg>
