<svg width="22" height="22" viewBox="0 0 22 22" fill="none" xmlns="http://www.w3.org/2000/svg">
<path opacity="0.3" fill-rule="evenodd" clip-rule="evenodd" d="M11 7.33335C9.98749 7.33335 9.16668 6.51254 9.16668 5.50002C9.16668 4.4875 9.98749 3.66669 11 3.66669C12.0125 3.66669 12.8333 4.4875 12.8333 5.50002C12.8333 6.51254 12.0125 7.33335 11 7.33335ZM2.75001 16.5H19.25C19.7563 16.5 20.1667 16.9104 20.1667 17.4167C20.1667 17.9229 19.7563 18.3334 19.25 18.3334H2.75001C2.24375 18.3334 1.83334 17.9229 1.83334 17.4167C1.83334 16.9104 2.24375 16.5 2.75001 16.5Z" fill="#EC9B25"/>
<path fill-rule="evenodd" clip-rule="evenodd" d="M19.25 14.6667C19.25 10.1103 15.5563 6.41669 11 6.41669C6.44365 6.41669 2.75 10.1103 2.75 14.6667H19.25Z" fill="#EC9B25"/>
</svg>
